<?xml version="1.0" encoding="UTF-8"?>
<svg id="Calque_1" xmlns="http://www.w3.org/2000/svg" xmlns:xlink="http://www.w3.org/1999/xlink" version="1.1" viewBox="0 0 64 64">
  <!-- Generator: Adobe Illustrator 30.0.0, SVG Export Plug-In . SVG Version: 2.1.1 Build 123)  -->
  <defs>
    <style>
      .st0 {
        opacity: .2;
      }

      .st0, .st1 {
        fill: #fff;
      }

      .st2 {
        fill: url(#Dégradé_sans_nom_83);
      }

      .st3 {
        fill: none;
        stroke: #2a9f2a;
        stroke-miterlimit: 10;
        stroke-width: .52px;
      }
    </style>
    <linearGradient id="Dégradé_sans_nom_83" data-name="Dégradé sans nom 83" x1="32" y1=".39" x2="32" y2="63.65" gradientUnits="userSpaceOnUse">
      <stop offset="0" stop-color="#44c746"/>
      <stop offset="1" stop-color="#34bb34"/>
    </linearGradient>
  </defs>
  <rect class="st3" x=".37" y=".36" width="63.26" height="63.26" rx="3.97" ry="3.97"/>
  <rect class="st2" x=".37" y=".39" width="63.26" height="63.26" rx="3.97" ry="3.97"/>
  <path class="st1" d="M9.35,14.21v35.61h45.29V14.21H9.35ZM36.56,20.37v7.42H12.47v-7.42h24.09ZM36.56,30.92v6.31H12.47v-6.31h24.09ZM39.68,30.92h11.85v6.31h-11.85v-6.31ZM39.68,27.8v-7.42h11.85v7.42h-11.85ZM12.47,40.34h24.09v6.36H12.47v-6.36ZM39.68,46.7v-6.36h11.85v6.36h-11.85Z"/>
  <path class="st0" d="M63.57,3.66s-1.31-2.57-3.46-2.55c-1.35.01-55.89-.04-55.89-.04,0,0-3.04.32-3.86,2.65C.94,1.39,2.85.38,4.34.36s55.58.03,55.58.03c0,0,3.17.17,3.65,3.27Z"/>
</svg>