<?xml version="1.0" encoding="UTF-8"?>
<svg id="Calque_1" xmlns="http://www.w3.org/2000/svg" xmlns:xlink="http://www.w3.org/1999/xlink" version="1.1" viewBox="0 0 64 64">
  <!-- Generator: Adobe Illustrator 30.0.0, SVG Export Plug-In . SVG Version: 2.1.1 Build 123)  -->
  <defs>
    <style>
      .st0 {
        fill: url(#Dégradé_sans_nom_4);
      }

      .st1 {
        fill: #ebebeb;
      }

      .st2, .st3 {
        fill: #fff;
      }

      .st4 {
        fill: url(#Dégradé_sans_nom);
      }

      .st5 {
        fill: none;
        stroke: #2a9f2a;
        stroke-miterlimit: 10;
        stroke-width: .52px;
      }

      .st6 {
        fill: #134489;
        fill-rule: evenodd;
      }

      .st3 {
        isolation: isolate;
        opacity: .2;
      }
    </style>
    <linearGradient id="Dégradé_sans_nom" data-name="Dégradé sans nom" x1="32" y1="63.61" x2="32" y2=".35" gradientTransform="translate(0 64) scale(1 -1)" gradientUnits="userSpaceOnUse">
      <stop offset="0" stop-color="#44c746"/>
      <stop offset="1" stop-color="#34bb34"/>
    </linearGradient>
    <linearGradient id="Dégradé_sans_nom_4" data-name="Dégradé sans nom 4" x1="46.68" y1="30.05" x2="46.68" y2="63.74" gradientUnits="userSpaceOnUse">
      <stop offset="0" stop-color="#f2f4f4"/>
      <stop offset="1" stop-color="#e8e8e8"/>
    </linearGradient>
  </defs>
  <rect class="st5" x=".37" y=".36" width="63.26" height="63.26" rx="3.97" ry="3.97"/>
  <rect class="st4" x=".37" y=".39" width="63.26" height="63.26" rx="3.97" ry="3.97"/>
  <path class="st2" d="M9.35,14.21v35.61h45.29V14.21H9.35ZM36.56,20.37v7.42H12.47v-7.42h24.09ZM36.56,30.92v6.31H12.47v-6.31h24.09ZM39.68,30.92h11.85v6.31h-11.85v-6.31ZM39.68,27.8v-7.42h11.85v7.42h-11.85ZM12.47,40.34h24.09v6.36H12.47v-6.36ZM39.68,46.7v-6.36h11.85v6.36h-11.85Z"/>
  <g>
    <path class="st1" d="M59.82,63.97h-30.13v-.52h30.09s1.78.05,2.91-1.42c.81-1.01.76-2.2.76-2.21v-29.74h.52v29.74s.06,1.37-.87,2.53c-1.19,1.55-2.94,1.62-3.28,1.62Z"/>
    <path class="st0" d="M59.73,63.73h-30.05s-.69-12.53,10.36-24.09c10.68-10.76,21.84-9.55,23.65-9.55-.04,18.79-.07,29.69-.07,29.69,0,0,0,1.27-.83,2.39-1.13,1.51-3.05,1.57-3.05,1.57h-.01Z"/>
    <path id="path-8" class="st6" d="M46.93,53.18h1.56c.69,0,1.02-.25,1.17-.25.13,0,.23.1.23.31,0,.23-.25,1.27-.43,1.6-.13.23-.25.33-.69.33h-1.83c0,.52.02.88.03,1.06.02.64.14,1.65.34,1.93.33.48,1.34,1.02,3.35,1.02,2.59,0,4.32-.51,5.85-1.83,1.63-1.4,2.14-3.71,2.14-6.33,0-3.23-1.35-5.32-2.44-6.36-2.34-2.24-5.24-2.54-7.22-2.54-.51,0-1.53.08-1.73.18-.23.1-.32.23-.32.51v10.39h0v-.02h0ZM43.84,45.32c-.58.74-5.78,6.71-6.64,7.86h5.83v1.98h-7.9c-.31,0-.64-.1-.64-.38,0-.31.23-.53.33-.66.18-.2,10.51-12.6,10.73-12.85.41-.47.58-.58.86-.57.43.02.37.34,1.05.26.06,0,.92-.06,1.92-.06,3.18,0,7.43,0,10.2,2.9,1.27,1.32,2.47,3.43,2.47,6.46,0,3.2-1.35,5.65-2.77,7.1-1.17,1.2-3.82,2.87-8.53,2.87h-9.24c-.28,0-.36-.11-.36-.29s.08-.33.2-.33c.23,0,.79-.02,1.2-.08.97-.1,1.15-.5,1.2-1.29.08-1.38.08-3.07.08-3.07v-9.85h0Z"/>
  </g>
  <path class="st3" d="M63.57,3.66s-1.31-2.57-3.46-2.55c-1.35,0-55.89-.04-55.89-.04,0,0-3.04.32-3.86,2.65C.94,1.39,2.85.38,4.34.36s55.58.03,55.58.03c0,0,3.17.17,3.65,3.27Z"/>
</svg>